<svg width="394" height="390" viewBox="0 0 394 390" fill="none" xmlns="http://www.w3.org/2000/svg">
<path fill-rule="evenodd" clip-rule="evenodd" d="M247.565 6.48458C248.213 6.6568 248.86 6.83239 249.506 7.01135L386.177 143.682C386.356 144.328 386.531 144.975 386.704 145.623L247.565 6.48458ZM206.749 0.118725C207.247 0.143557 207.745 0.170277 208.243 0.198891L392.989 184.945C393.018 185.443 393.045 185.941 393.07 186.439L206.749 0.118725ZM173.451 1.2714C173.873 1.2209 174.295 1.17177 174.718 1.12402L392.064 218.47C392.016 218.893 391.967 219.315 391.917 219.737L173.451 1.2714ZM144.648 6.91935C145.019 6.81748 145.39 6.71673 145.76 6.61709L386.571 247.428C386.472 247.799 386.371 248.169 386.269 248.54L144.648 6.91935ZM119.146 15.8676C119.476 15.7255 119.806 15.5844 120.137 15.4441L377.744 273.051C377.604 273.382 377.463 273.712 377.321 274.042L119.146 15.8676ZM96.3464 27.5182C96.6419 27.3418 96.9378 27.1663 97.234 26.9916L366.197 295.954C366.022 296.25 365.846 296.546 365.67 296.842L96.3464 27.5182ZM75.919 41.5413C76.1834 41.334 76.4483 41.1274 76.7136 40.9217L352.267 316.475C352.061 316.74 351.854 317.005 351.647 317.269L75.919 41.5413ZM57.6796 57.7524C57.7969 57.6345 57.9145 57.5167 58.0321 57.3991C58.1502 57.281 58.2684 57.1631 58.3867 57.0453L336.143 334.801C336.025 334.92 335.907 335.038 335.789 335.156C335.672 335.274 335.554 335.391 335.436 335.509L57.6796 57.7524ZM41.5558 76.0791C41.7616 75.8138 41.9681 75.549 42.1755 75.2845L317.904 351.013C317.639 351.22 317.374 351.427 317.109 351.632L41.5558 76.0791ZM27.6256 96.5994C27.8003 96.3031 27.9758 96.0073 28.1522 95.7118L297.477 365.036C297.181 365.212 296.885 365.388 296.589 365.563L27.6256 96.5994ZM16.0779 119.502C16.2182 119.172 16.3593 118.841 16.5014 118.511L274.677 376.687C274.347 376.829 274.017 376.97 273.686 377.11L16.0779 119.502ZM7.25066 145.125C7.35033 144.755 7.45109 144.384 7.55296 144.013L249.175 385.635C248.804 385.737 248.434 385.838 248.063 385.938L7.25066 145.125ZM1.75733 174.083C1.80511 173.66 1.85422 173.238 1.90472 172.816L220.373 391.284C219.95 391.334 219.528 391.383 219.106 391.431L1.75733 174.083ZM0.8318 207.608C0.803208 207.11 0.776493 206.611 0.751655 206.113L187.075 392.437C186.577 392.412 186.079 392.385 185.581 392.356L0.8318 207.608ZM7.64344 248.87C7.46451 248.223 7.28894 247.576 7.11674 246.929L146.26 386.071C145.612 385.899 144.965 385.724 144.319 385.545L7.64344 248.87ZM44.491 320.168C42.7608 318.044 41.0817 315.893 39.4537 313.716L79.4721 353.735C77.295 352.107 75.1439 350.427 73.0206 348.697L44.491 320.168ZM354.36 78.8291L314.359 38.8281C316.538 40.4573 318.69 42.1376 320.814 43.869L349.319 72.3739C351.051 74.4984 352.731 76.6507 354.36 78.8291Z" fill="#F6F6F6"/>
</svg>
