<svg width="308" height="88" viewBox="0 0 308 88" fill="none" xmlns="http://www.w3.org/2000/svg">
<path d="M8 33C8 19.1929 19.1929 8 33 8H307C307.552 8 308 8.44772 308 9V63C308 76.8071 296.807 88 283 88H9C8.44771 88 8 87.5523 8 87V33Z" stroke="white" stroke-width="4" mask="url(#path-1-inside-1_1020_359)"/>
<path d="M0 25C0 11.1929 11.1929 0 25 0H299C299.552 0 300 0.447715 300 1V55C300 68.8071 288.807 80 275 80H0.999999C0.447714 80 0 79.5523 0 79V25Z" fill="white"/>
<path d="M19.5625 30.9062C19.5104 30.7812 19.4844 30.6406 19.4844 30.4844C19.4844 30.3177 19.5729 30.1302 19.75 29.9219C19.9375 29.7031 20.2135 29.5938 20.5781 29.5938H24C24.4062 29.5938 24.7812 29.7344 25.125 30.0156C25.4688 30.2969 25.7135 30.651 25.8594 31.0781L29.9844 43.4531L33.7969 31.0781C34.099 30.0885 34.7188 29.5938 35.6562 29.5938H38.5312C39.4688 29.5938 40.0885 30.0885 40.3906 31.0781L44.2031 43.4531L48.3281 31.0781C48.474 30.651 48.7188 30.2969 49.0625 30.0156C49.4062 29.7344 49.7812 29.5938 50.1875 29.5938H53.6094C53.9635 29.5938 54.2292 29.7031 54.4062 29.9219C54.5938 30.1302 54.6875 30.3177 54.6875 30.4844C54.6875 30.6406 54.6667 30.7812 54.625 30.9062L47.6562 50.4062C47.2708 51.4688 46.5208 52 45.4062 52H43.1406C41.9844 52 41.2396 51.4688 40.9062 50.4062L37.0938 38.375L33.2812 50.4062C32.9375 51.4688 32.1927 52 31.0469 52H28.7656C27.6615 52 26.9167 51.4688 26.5312 50.4062L19.5625 30.9062ZM57.5938 50.0312C55.9896 48.5104 55.1875 46.3229 55.1875 43.4688C55.1875 40.6042 55.9948 38.4062 57.6094 36.875C59.224 35.3333 61.4635 34.5625 64.3281 34.5625C67.1927 34.5625 69.4271 35.3125 71.0312 36.8125C72.6354 38.3021 73.4375 40.4427 73.4375 43.2344V44.125C73.4375 44.4062 73.3438 44.6406 73.1562 44.8281C72.9792 45.0052 72.75 45.0938 72.4688 45.0938H60.7031C60.8073 46.375 61.1719 47.3073 61.7969 47.8906C62.4323 48.474 63.4427 48.7656 64.8281 48.7656C66.2135 48.7656 67.1615 48.4531 67.6719 47.8281C68.1823 47.2031 68.8125 46.8854 69.5625 46.875H71.8906C72.1719 46.875 72.401 46.9688 72.5781 47.1562C72.7656 47.3333 72.8594 47.5625 72.8594 47.8438C72.8594 50.8333 70.0104 52.3229 64.3125 52.3125C61.4375 52.3125 59.1979 51.5521 57.5938 50.0312ZM60.6719 41.7969H67.9375C67.8333 39.3385 66.625 38.1094 64.3125 38.1094C62.0104 38.1094 60.7969 39.3385 60.6719 41.7969ZM76.3125 30.5625C76.3125 30.2812 76.401 30.0521 76.5781 29.875C76.7656 29.6875 76.9948 29.5938 77.2656 29.5938H80.7656C81.0365 29.5938 81.2604 29.6875 81.4375 29.875C81.625 30.0521 81.7188 30.2812 81.7188 30.5625V35.3594C83.4062 34.8281 84.9115 34.5625 86.2344 34.5625C88.7969 34.5625 90.8333 35.3281 92.3438 36.8594C93.8542 38.3802 94.6094 40.5781 94.6094 43.4531C94.6094 49.3594 91.3021 52.3125 84.6875 52.3125C83.1771 52.3125 81.6094 52.1458 79.9844 51.8125C78.3698 51.4688 77.1458 51.0521 76.3125 50.5625V30.5625ZM81.7188 38.9688V48.1875C82.6146 48.4271 83.7552 48.5469 85.1406 48.5469C86.526 48.5469 87.5208 48.1458 88.125 47.3438C88.7396 46.5417 89.0469 45.2448 89.0469 43.4531C89.0469 41.6615 88.7448 40.3646 88.1406 39.5625C87.5469 38.75 86.5365 38.3438 85.1094 38.3438C84.1927 38.3438 83.0625 38.5521 81.7188 38.9688Z" fill="black"/>
<path d="M109.031 50.5625V31.1094C109.031 30.6823 109.177 30.3229 109.469 30.0312C109.76 29.7396 110.109 29.5938 110.516 29.5938H119.25C123.771 29.5938 127.057 30.5 129.109 32.3125C131.172 34.1146 132.203 36.9479 132.203 40.8125C132.203 44.6667 131.172 47.4948 129.109 49.2969C127.057 51.099 123.771 52 119.25 52H110.516C110.109 52 109.76 51.8646 109.469 51.5938C109.177 51.3125 109.031 50.9688 109.031 50.5625ZM114.922 47.5781H119.078C121.88 47.5781 123.786 47.0677 124.797 46.0469C125.807 45.026 126.312 43.2812 126.312 40.8125C126.312 38.3333 125.807 36.5833 124.797 35.5625C123.786 34.5312 121.88 34.0156 119.078 34.0156H114.922V47.5781ZM136.531 50.0312C134.927 48.5104 134.125 46.3229 134.125 43.4688C134.125 40.6042 134.932 38.4062 136.547 36.875C138.161 35.3333 140.401 34.5625 143.266 34.5625C146.13 34.5625 148.365 35.3125 149.969 36.8125C151.573 38.3021 152.375 40.4427 152.375 43.2344V44.125C152.375 44.4062 152.281 44.6406 152.094 44.8281C151.917 45.0052 151.688 45.0938 151.406 45.0938H139.641C139.745 46.375 140.109 47.3073 140.734 47.8906C141.37 48.474 142.38 48.7656 143.766 48.7656C145.151 48.7656 146.099 48.4531 146.609 47.8281C147.12 47.2031 147.75 46.8854 148.5 46.875H150.828C151.109 46.875 151.339 46.9688 151.516 47.1562C151.703 47.3333 151.797 47.5625 151.797 47.8438C151.797 50.8333 148.948 52.3229 143.25 52.3125C140.375 52.3125 138.135 51.5521 136.531 50.0312ZM139.609 41.7969H146.875C146.771 39.3385 145.562 38.1094 143.25 38.1094C140.948 38.1094 139.734 39.3385 139.609 41.7969ZM154.141 34.875H157.141C157.589 34.875 158.01 35.0052 158.406 35.2656C158.802 35.5156 159.083 35.8438 159.25 36.25L163.516 45.9844L167.766 36.25C167.932 35.8438 168.214 35.5156 168.609 35.2656C169.005 35.0052 169.427 34.875 169.875 34.875H172.891C173.255 34.875 173.495 35.0104 173.609 35.2812C173.661 35.3854 173.682 35.5208 173.672 35.6875C173.672 35.8438 173.625 36.0312 173.531 36.25L166.781 50.625C166.594 51.0312 166.297 51.3646 165.891 51.625C165.495 51.875 165.083 52 164.656 52H162.359C161.932 52 161.521 51.875 161.125 51.625C160.729 51.3646 160.438 51.0312 160.25 50.625L153.5 36.25C153.396 36.0208 153.344 35.8281 153.344 35.6719C153.344 35.1406 153.609 34.875 154.141 34.875ZM177.062 50.0312C175.458 48.5104 174.656 46.3229 174.656 43.4688C174.656 40.6042 175.464 38.4062 177.078 36.875C178.693 35.3333 180.932 34.5625 183.797 34.5625C186.661 34.5625 188.896 35.3125 190.5 36.8125C192.104 38.3021 192.906 40.4427 192.906 43.2344V44.125C192.906 44.4062 192.812 44.6406 192.625 44.8281C192.448 45.0052 192.219 45.0938 191.938 45.0938H180.172C180.276 46.375 180.641 47.3073 181.266 47.8906C181.901 48.474 182.911 48.7656 184.297 48.7656C185.682 48.7656 186.63 48.4531 187.141 47.8281C187.651 47.2031 188.281 46.8854 189.031 46.875H191.359C191.641 46.875 191.87 46.9688 192.047 47.1562C192.234 47.3333 192.328 47.5625 192.328 47.8438C192.328 50.8333 189.479 52.3229 183.781 52.3125C180.906 52.3125 178.667 51.5521 177.062 50.0312ZM180.141 41.7969H187.406C187.302 39.3385 186.094 38.1094 183.781 38.1094C181.479 38.1094 180.266 39.3385 180.141 41.7969ZM195.781 51.0469V30.5625C195.781 30.2812 195.87 30.0521 196.047 29.875C196.234 29.6875 196.464 29.5938 196.734 29.5938H200.234C200.505 29.5938 200.729 29.6875 200.906 29.875C201.094 30.0521 201.188 30.2812 201.188 30.5625V51.0469C201.188 51.3177 201.094 51.5469 200.906 51.7344C200.729 51.9115 200.505 52 200.234 52H196.734C196.464 52 196.234 51.9115 196.047 51.7344C195.87 51.5469 195.781 51.3177 195.781 51.0469ZM206.5 50.0625C204.875 48.5625 204.062 46.3542 204.062 43.4375C204.062 40.5104 204.875 38.3021 206.5 36.8125C208.125 35.3125 210.458 34.5625 213.5 34.5625C216.552 34.5625 218.891 35.3125 220.516 36.8125C222.141 38.3021 222.953 40.5104 222.953 43.4375C222.953 46.3542 222.141 48.5625 220.516 50.0625C218.891 51.5625 216.552 52.3125 213.5 52.3125C210.458 52.3125 208.125 51.5625 206.5 50.0625ZM210.453 39.375C209.807 40.2188 209.484 41.5677 209.484 43.4219C209.484 45.276 209.807 46.6302 210.453 47.4844C211.099 48.3385 212.115 48.7656 213.5 48.7656C214.896 48.7656 215.917 48.3385 216.562 47.4844C217.219 46.6302 217.547 45.276 217.547 43.4219C217.547 41.5677 217.219 40.2188 216.562 39.375C215.917 38.5312 214.896 38.1094 213.5 38.1094C212.115 38.1094 211.099 38.5312 210.453 39.375ZM225.844 56.3125V35.8438C225.844 35.5625 225.932 35.3333 226.109 35.1562C226.297 34.9688 226.526 34.875 226.797 34.875H229.812C230.083 34.875 230.307 34.9688 230.484 35.1562C230.672 35.3333 230.766 35.5625 230.766 35.8438V36.3125C232.411 35.1458 234.323 34.5625 236.5 34.5625C238.677 34.5625 240.495 35.3333 241.953 36.875C243.411 38.4062 244.141 40.6042 244.141 43.4688C244.141 46.3229 243.385 48.5104 241.875 50.0312C240.365 51.5521 238.328 52.3125 235.766 52.3125C234.443 52.3125 232.938 52.0469 231.25 51.5156V56.3125C231.25 56.5938 231.156 56.8229 230.969 57C230.792 57.1875 230.568 57.2812 230.297 57.2812H226.797C226.526 57.2812 226.297 57.1875 226.109 57C225.932 56.8229 225.844 56.5938 225.844 56.3125ZM231.25 47.9062C232.594 48.3333 233.724 48.5469 234.641 48.5469C236.068 48.5469 237.078 48.1406 237.672 47.3281C238.276 46.5156 238.578 45.2188 238.578 43.4375C238.578 41.6562 238.292 40.3646 237.719 39.5625C237.156 38.75 236.307 38.3438 235.172 38.3438C234.047 38.3438 232.74 38.8125 231.25 39.75V47.9062ZM248.469 50.0312C246.865 48.5104 246.062 46.3229 246.062 43.4688C246.062 40.6042 246.87 38.4062 248.484 36.875C250.099 35.3333 252.339 34.5625 255.203 34.5625C258.068 34.5625 260.302 35.3125 261.906 36.8125C263.51 38.3021 264.312 40.4427 264.312 43.2344V44.125C264.312 44.4062 264.219 44.6406 264.031 44.8281C263.854 45.0052 263.625 45.0938 263.344 45.0938H251.578C251.682 46.375 252.047 47.3073 252.672 47.8906C253.307 48.474 254.318 48.7656 255.703 48.7656C257.089 48.7656 258.036 48.4531 258.547 47.8281C259.057 47.2031 259.688 46.8854 260.438 46.875H262.766C263.047 46.875 263.276 46.9688 263.453 47.1562C263.641 47.3333 263.734 47.5625 263.734 47.8438C263.734 50.8333 260.885 52.3229 255.188 52.3125C252.312 52.3125 250.073 51.5521 248.469 50.0312ZM251.547 41.7969H258.812C258.708 39.3385 257.5 38.1094 255.188 38.1094C252.885 38.1094 251.672 39.3385 251.547 41.7969ZM279.031 38.8438L276.625 38.75C275.219 38.75 273.875 39.5208 272.594 41.0625V51.0469C272.594 51.3281 272.5 51.5573 272.312 51.7344C272.135 51.9115 271.911 52 271.641 52H268.141C267.859 52 267.63 51.9115 267.453 51.7344C267.276 51.5573 267.188 51.3281 267.188 51.0469V35.8438C267.188 35.5625 267.276 35.3333 267.453 35.1562C267.641 34.9688 267.87 34.875 268.141 34.875H271.641C271.922 34.875 272.151 34.9688 272.328 35.1562C272.505 35.3333 272.594 35.5625 272.594 35.8438V36.8281C273.656 36.0573 274.677 35.4896 275.656 35.125C276.646 34.75 277.938 34.5625 279.531 34.5625C279.812 34.5625 280.042 34.6562 280.219 34.8438C280.406 35.0208 280.5 35.2448 280.5 35.5156V37.8906C280.5 38.1719 280.406 38.401 280.219 38.5781C280.042 38.7552 279.812 38.8438 279.531 38.8438H279.031Z" fill="#F73B3F"/>
</svg>
