<svg width="308" height="88" viewBox="0 0 308 88" fill="none" xmlns="http://www.w3.org/2000/svg">
<path d="M8 33C8 19.1929 19.1929 8 33 8H307C307.552 8 308 8.44772 308 9V63C308 76.8071 296.807 88 283 88H9C8.44771 88 8 87.5523 8 87V33Z" stroke="white" stroke-width="4" mask="url(#path-1-inside-1_1020_363)"/>
<path d="M0 25C0 11.1929 11.1929 0 25 0H299C299.552 0 300 0.447715 300 1V55C300 68.8071 288.807 80 275 80H0.999999C0.447714 80 0 79.5523 0 79V25Z" fill="white"/>
<path d="M36.1094 43.1406V31.0781C36.1094 30.6719 36.25 30.3229 36.5312 30.0312C36.8229 29.7396 37.1823 29.5938 37.6094 29.5938H40.5312C40.9271 29.5938 41.2708 29.7396 41.5625 30.0312C41.8542 30.3229 42 30.6719 42 31.0781V43.1719C42 44.7031 42.3333 45.8438 43 46.5938C43.6771 47.3438 44.7188 47.7188 46.125 47.7188H48.625C50.0312 47.7188 51.0677 47.3438 51.7344 46.5938C52.4115 45.8438 52.75 44.7031 52.75 43.1719V31.0781C52.75 30.6719 52.8906 30.3229 53.1719 30.0312C53.4635 29.7396 53.8125 29.5938 54.2188 29.5938H57.125C57.5521 29.5938 57.9115 29.7396 58.2031 30.0312C58.4948 30.3229 58.6406 30.6719 58.6406 31.0781V43.1406C58.6406 45.9948 57.8021 48.2083 56.125 49.7812C54.4479 51.3438 52 52.125 48.7812 52.125H45.9688C42.7396 52.125 40.2865 51.3438 38.6094 49.7812C36.9427 48.2083 36.1094 45.9948 36.1094 43.1406ZM62.7969 50.5625V31.0781C62.7969 30.6719 62.9427 30.3229 63.2344 30.0312C63.526 29.7396 63.875 29.5938 64.2812 29.5938H67.1875C67.6146 29.5938 67.9688 29.7396 68.25 30.0312C68.5417 30.3229 68.6875 30.6719 68.6875 31.0781V50.5312C68.6875 50.9375 68.5365 51.2865 68.2344 51.5781C67.9427 51.8594 67.5938 52 67.1875 52H64.2812C63.875 52 63.526 51.8646 63.2344 51.5938C62.9427 51.3125 62.7969 50.9688 62.7969 50.5625ZM71.7031 52C71.1927 52 70.9375 51.7552 70.9375 51.2656C70.9375 51.026 71.0104 50.7812 71.1562 50.5312L81.3125 31.0781C81.8021 30.0885 82.7083 29.5938 84.0312 29.5938H86.6562C87.1667 29.5938 87.4219 29.8438 87.4219 30.3438C87.4219 30.5729 87.3438 30.8177 87.1875 31.0781L77.0469 50.5312C76.5573 51.5104 75.651 52 74.3281 52H71.7031ZM89.3594 43.1406V31.0781C89.3594 30.6719 89.5 30.3229 89.7812 30.0312C90.0729 29.7396 90.4323 29.5938 90.8594 29.5938H93.7812C94.1771 29.5938 94.5208 29.7396 94.8125 30.0312C95.1042 30.3229 95.25 30.6719 95.25 31.0781V43.1719C95.25 44.7031 95.5833 45.8438 96.25 46.5938C96.9271 47.3438 97.9688 47.7188 99.375 47.7188H101.875C103.281 47.7188 104.318 47.3438 104.984 46.5938C105.661 45.8438 106 44.7031 106 43.1719V31.0781C106 30.6719 106.141 30.3229 106.422 30.0312C106.714 29.7396 107.062 29.5938 107.469 29.5938H110.375C110.802 29.5938 111.161 29.7396 111.453 30.0312C111.745 30.3229 111.891 30.6719 111.891 31.0781V43.1406C111.891 45.9948 111.052 48.2083 109.375 49.7812C107.698 51.3438 105.25 52.125 102.031 52.125H99.2188C95.9896 52.125 93.5365 51.3438 91.8594 49.7812C90.1927 48.2083 89.3594 45.9948 89.3594 43.1406ZM115 52C114.479 52 114.188 51.7656 114.125 51.2969C114.125 51.0677 114.234 50.8125 114.453 50.5312L122.328 40.4844L114.906 31.0781C114.688 30.8073 114.578 30.5521 114.578 30.3125C114.578 29.8333 114.865 29.5938 115.438 29.5938H118.797C119.839 29.5938 120.75 30.0885 121.531 31.0781L125.812 36.5156L130.094 31.0781C130.865 30.099 131.776 29.6042 132.828 29.5938H136.188C136.76 29.5938 137.047 29.8333 137.047 30.3125C137.047 30.5417 136.938 30.7969 136.719 31.0781L129.297 40.4844L137.172 50.5312C137.391 50.8021 137.5 51.0208 137.5 51.1875C137.5 51.3542 137.479 51.474 137.438 51.5469C137.323 51.849 137.052 52 136.625 52H133.297C132.255 52 131.349 51.5104 130.578 50.5312L125.812 44.4531L121.047 50.5312C120.276 51.5104 119.37 52 118.328 52H115Z" fill="black"/>
<path d="M151.266 50.5625V31.1094C151.266 30.6823 151.411 30.3229 151.703 30.0312C151.995 29.7396 152.344 29.5938 152.75 29.5938H161.484C166.005 29.5938 169.292 30.5 171.344 32.3125C173.406 34.1146 174.438 36.9479 174.438 40.8125C174.438 44.6667 173.406 47.4948 171.344 49.2969C169.292 51.099 166.005 52 161.484 52H152.75C152.344 52 151.995 51.8646 151.703 51.5938C151.411 51.3125 151.266 50.9688 151.266 50.5625ZM157.156 47.5781H161.312C164.115 47.5781 166.021 47.0677 167.031 46.0469C168.042 45.026 168.547 43.2812 168.547 40.8125C168.547 38.3333 168.042 36.5833 167.031 35.5625C166.021 34.5312 164.115 34.0156 161.312 34.0156H157.156V47.5781ZM178.766 50.0312C177.161 48.5104 176.359 46.3229 176.359 43.4688C176.359 40.6042 177.167 38.4062 178.781 36.875C180.396 35.3333 182.635 34.5625 185.5 34.5625C188.365 34.5625 190.599 35.3125 192.203 36.8125C193.807 38.3021 194.609 40.4427 194.609 43.2344V44.125C194.609 44.4062 194.516 44.6406 194.328 44.8281C194.151 45.0052 193.922 45.0938 193.641 45.0938H181.875C181.979 46.375 182.344 47.3073 182.969 47.8906C183.604 48.474 184.615 48.7656 186 48.7656C187.385 48.7656 188.333 48.4531 188.844 47.8281C189.354 47.2031 189.984 46.8854 190.734 46.875H193.062C193.344 46.875 193.573 46.9688 193.75 47.1562C193.938 47.3333 194.031 47.5625 194.031 47.8438C194.031 50.8333 191.182 52.3229 185.484 52.3125C182.609 52.3125 180.37 51.5521 178.766 50.0312ZM181.844 41.7969H189.109C189.005 39.3385 187.797 38.1094 185.484 38.1094C183.182 38.1094 181.969 39.3385 181.844 41.7969ZM196.516 39.6094C196.516 36.2448 199.229 34.5625 204.656 34.5625C210.365 34.5625 213.219 36.0573 213.219 39.0469C213.219 39.3177 213.13 39.5469 212.953 39.7344C212.776 39.9115 212.547 40 212.266 40H209.938C209.188 40 208.557 39.6875 208.047 39.0625C207.536 38.4271 206.531 38.1094 205.031 38.1094C202.969 38.1094 201.938 38.6094 201.938 39.6094C201.938 40.0781 202.339 40.4688 203.141 40.7812C203.953 41.0938 204.938 41.3698 206.094 41.6094C207.26 41.8385 208.422 42.1354 209.578 42.5C210.734 42.8646 211.714 43.4479 212.516 44.25C213.328 45.0417 213.734 46.0469 213.734 47.2656C213.734 50.6302 210.87 52.3125 205.141 52.3125C199.411 52.3125 196.547 50.8229 196.547 47.8438C196.547 47.5625 196.635 47.3333 196.812 47.1562C197 46.9688 197.234 46.875 197.516 46.875H199.844C200.594 46.875 201.224 47.1927 201.734 47.8281C202.245 48.4531 203.25 48.7656 204.75 48.7656C207.135 48.7656 208.328 48.2656 208.328 47.2656C208.328 46.7969 207.922 46.4062 207.109 46.0938C206.307 45.7812 205.323 45.5052 204.156 45.2656C202.99 45.0156 201.828 44.7135 200.672 44.3594C199.526 43.9948 198.547 43.4115 197.734 42.6094C196.922 41.8073 196.516 40.8073 196.516 39.6094ZM216.641 31.6094V31.0781C216.641 30.526 216.797 30.0885 217.109 29.7656C217.432 29.4427 217.875 29.2812 218.438 29.2812H220.375C220.927 29.2812 221.365 29.4427 221.688 29.7656C222.01 30.0781 222.172 30.5156 222.172 31.0781V31.6094C222.172 32.1615 222.01 32.599 221.688 32.9219C221.375 33.2448 220.938 33.4062 220.375 33.4062H218.438C217.885 33.4062 217.448 33.2448 217.125 32.9219C216.802 32.599 216.641 32.1615 216.641 31.6094ZM216.703 51.0469V36.2188C216.703 35.9375 216.792 35.7083 216.969 35.5312C217.156 35.3542 217.385 35.2656 217.656 35.2656H221.156C221.438 35.2656 221.667 35.3594 221.844 35.5469C222.021 35.724 222.109 35.9479 222.109 36.2188V51.0469C222.109 51.3281 222.016 51.5573 221.828 51.7344C221.651 51.9115 221.427 52 221.156 52H217.656C217.375 52 217.146 51.9115 216.969 51.7344C216.792 51.5573 216.703 51.3281 216.703 51.0469ZM232.953 50.6875C230.589 50.6875 228.677 49.974 227.219 48.5469C225.771 47.1198 225.047 45.1406 225.047 42.6094C225.047 40.0781 225.875 38.1042 227.531 36.6875C229.188 35.2708 231.562 34.5625 234.656 34.5625C236.167 34.5625 237.734 34.7344 239.359 35.0781C240.984 35.4115 242.208 35.8229 243.031 36.3125V50.7812C243.031 53.1042 242.266 54.8177 240.734 55.9219C239.203 57.0365 237.052 57.5938 234.281 57.5938C231.521 57.5938 229.391 57.2448 227.891 56.5469C226.401 55.8594 225.656 54.7188 225.656 53.125C225.656 52.8438 225.745 52.6094 225.922 52.4219C226.109 52.2448 226.344 52.1562 226.625 52.1562H228.953C229.703 52.1562 230.302 52.4323 230.75 52.9844C231.323 53.6927 232.339 54.0469 233.797 54.0469C235.266 54.0469 236.271 53.8073 236.812 53.3281C237.354 52.849 237.625 52 237.625 50.7812V50.0469C235.958 50.474 234.401 50.6875 232.953 50.6875ZM234.328 38.3438C231.859 38.3333 230.625 39.7604 230.625 42.625C230.625 45.4792 231.828 46.9062 234.234 46.9062C235.234 46.9062 236.365 46.75 237.625 46.4375V38.6875C236.729 38.4479 235.63 38.3333 234.328 38.3438ZM246.891 51.0469V35.8438C246.891 35.5625 246.979 35.3333 247.156 35.1562C247.344 34.9688 247.573 34.875 247.844 34.875H251.344C251.615 34.875 251.839 34.9688 252.016 35.1562C252.203 35.3333 252.297 35.5625 252.297 35.8438V36.8281C254.089 35.3177 255.995 34.5625 258.016 34.5625C260.047 34.5625 261.698 35.1823 262.969 36.4219C264.24 37.651 264.875 39.5365 264.875 42.0781V51.0469C264.875 51.3177 264.781 51.5469 264.594 51.7344C264.417 51.9115 264.188 52 263.906 52H260.422C260.151 52 259.922 51.9115 259.734 51.7344C259.557 51.5469 259.469 51.3177 259.469 51.0469V42.0781C259.469 39.5885 258.474 38.3438 256.484 38.3438C255.182 38.3438 253.786 39.0885 252.297 40.5781V51.0469C252.297 51.3177 252.203 51.5469 252.016 51.7344C251.839 51.9115 251.615 52 251.344 52H247.844C247.573 52 247.344 51.9115 247.156 51.7344C246.979 51.5469 246.891 51.3177 246.891 51.0469Z" fill="#F73B3F"/>
</svg>
